<svg width="20" height="20" viewBox="0 0 20 20" fill="none" xmlns="http://www.w3.org/2000/svg">
<path d="M8.31217 16.6668C8.40615 17.5 9.1258 18.1482 10 18.1482C10.8742 18.1482 11.5938 17.5 11.6878 16.6668H8.31217ZM13.5802 16.6668C13.482 18.5238 11.9165 20 10 20C8.08347 20 6.51801 18.5238 6.41983 16.6668H1.69861C0.760455 16.6668 0 15.9212 0 15.0007V14.6292C0 13.2866 0.972386 12.1667 2.26405 11.908V7.59256C2.26405 3.39827 5.7271 0 10 0C14.2729 0 17.736 3.39886 17.736 7.59256V11.908C19.0292 12.1659 20 13.2853 20 14.6292V15.0007C20 15.9238 19.2398 16.6668 18.3014 16.6668H13.5802ZM18.1132 14.6292C18.1132 14.1171 17.6918 13.7038 17.1664 13.7038C16.4383 13.7038 15.8492 13.1212 15.8492 12.4102V7.59251C15.8492 4.42182 13.2309 1.85199 10 1.85199C6.76909 1.85199 4.1508 4.42103 4.1508 7.59251V12.4102C4.1508 13.1243 3.55853 13.7038 2.8336 13.7038C2.3103 13.7038 1.88675 14.1187 1.88675 14.6292V14.8149H18.1134L18.1132 14.6292Z" fill="black"/>
</svg>
