<svg width="20" height="20" viewBox="0 0 20 20" fill="none" xmlns="http://www.w3.org/2000/svg">
<path d="M19.7166 18.0525L14.8684 13.2044C16.5519 10.9548 16.9761 8.00345 15.994 5.3713C15.0119 2.73855 12.7582 0.78597 10.0125 0.188765C7.26686 -0.408399 4.40577 0.431792 2.41866 2.41864C0.431755 4.40553 -0.408384 7.26652 0.18876 10.0124C0.785904 12.7584 2.73857 15.0117 5.37108 15.9938C8.00387 16.9759 10.9552 16.552 13.2049 14.8682L18.0531 19.7164C18.3567 19.9765 18.7714 20.065 19.1551 19.9515C19.5384 19.8383 19.8384 19.5384 19.9515 19.155C20.065 18.7717 19.9763 18.357 19.7164 18.0531L19.7166 18.0525ZM2.3644 8.27415C2.36387 6.30492 3.3465 4.46525 4.98323 3.37046C6.62017 2.27568 8.69551 2.07003 10.5155 2.82228C12.3354 3.57451 13.6598 5.18541 14.0458 7.11642C14.4321 9.04743 13.8288 11.0438 12.4381 12.4379C11.3329 13.5459 9.83271 14.1694 8.26762 14.1707C6.70281 14.1723 5.20149 13.5517 4.09429 12.4456C2.98709 11.3397 2.36467 9.83916 2.3644 8.2741V8.27415Z" fill="black"/>
</svg>
