<svg width="17" height="16" viewBox="0 0 17 16" fill="none" xmlns="http://www.w3.org/2000/svg">
<path d="M0.660198 16H16.0681C16.2186 15.9983 16.3624 15.9381 16.4682 15.8325C16.574 15.7271 16.6333 15.5847 16.6333 15.4364C16.6333 12.5769 12.973 11.4366 11.4018 11.0774C11.3828 11.0722 11.3699 11.0553 11.3697 11.0359V10.4207C11.733 9.95476 12.0042 9.42583 12.1698 8.86132C12.5832 8.46067 12.7654 7.83388 12.8634 7.48482C13.0237 6.92958 13.184 6.12488 12.7419 5.54969L12.7233 5.52475C12.9359 4.50889 13.2009 2.13002 11.3614 0.921158C11.5768 0.704765 11.6938 0.41125 11.6854 0.108233C11.6832 0.0791255 11.6692 0.052222 11.6466 0.033436C11.6253 0.0158092 11.5984 0.00630009 11.5706 0.00687988C11.5469 0.00687988 9.24672 0.264556 8.13811 0.0384226C6.99732 -0.192698 5.74677 0.658499 5.49535 1.52961C5.06579 1.58493 4.67484 1.80248 4.40515 2.13645C3.89884 2.74655 3.74864 3.71753 3.94781 5.02086C3.96135 5.18715 3.9816 5.35332 4.01197 5.51963L3.99172 5.54456C3.55122 6.11975 3.71155 6.92443 3.87188 7.4797C3.96971 7.82214 4.15205 8.45554 4.56383 8.8562C4.7284 9.42456 4.99963 9.95742 5.36373 10.4273V11.0324C5.36432 11.052 5.3509 11.0693 5.33159 11.0739C3.75711 11.4313 0.100006 12.5701 0.100006 15.4329C0.0990644 15.581 0.157451 15.7234 0.262222 15.8295C0.36711 15.9356 0.509989 15.9969 0.660198 16ZM8.36413 13.2668C7.38909 13.2804 6.46756 12.8289 5.89004 12.055C6.14149 11.9165 6.33288 11.6925 6.42848 11.4248C6.68628 11.59 6.96339 11.7239 7.25369 11.8238C7.97213 12.0742 8.75611 12.0742 9.47455 11.8238C9.76449 11.7199 10.0409 11.5826 10.2981 11.4148C10.3923 11.6859 10.5845 11.9131 10.8382 12.0532C10.2609 12.8278 9.33945 13.2798 8.36413 13.2668ZM4.8521 7.20885C4.64962 6.50401 4.73567 6.24796 4.80313 6.15819C4.85127 6.09812 4.92661 6.06576 5.00396 6.07167H5.05293C5.11202 6.0755 5.16311 6.03178 5.1677 5.97357C5.1677 5.95861 5.29425 4.43909 6.20893 3.89211C6.66627 3.61785 7.2519 3.62944 7.95057 3.92203C9.3766 4.52726 10.4482 4.48899 11.0962 4.34275C11.8371 4.88143 11.6227 5.74096 11.5721 5.90887V5.93044C11.5596 5.96477 11.566 6.00315 11.5889 6.0318C11.6121 6.06021 11.6483 6.07528 11.6851 6.07169C11.7759 6.05499 11.8689 6.08653 11.9298 6.15484C11.9991 6.2446 12.0835 6.50064 11.8809 7.2055C11.6209 8.10817 11.41 8.19307 11.3509 8.20305C11.3004 8.2063 11.2592 8.24364 11.2514 8.2928C11.0996 9.25544 10.3232 10.4541 9.13013 10.8763C8.63454 11.0499 8.09327 11.0499 7.59766 10.8763C6.35561 10.4457 5.62987 9.23374 5.48143 8.29117C5.47366 8.242 5.43234 8.20466 5.38183 8.20142C5.32615 8.19805 5.11025 8.11165 4.8521 7.20885ZM6.35735 6.50401C6.35735 6.36508 6.41339 6.23184 6.5131 6.1336C6.6128 6.0355 6.74806 5.9803 6.88898 5.9803C7.03001 5.9803 7.16527 6.0355 7.26499 6.1336C7.36458 6.23183 7.42061 6.36507 7.42061 6.50401C7.42061 6.64282 7.36458 6.77607 7.26499 6.8743C7.16528 6.97252 7.03002 7.02761 6.88898 7.02761C6.74807 7.02761 6.61281 6.97252 6.5131 6.8743C6.41339 6.77608 6.35735 6.64283 6.35735 6.50401ZM9.35624 6.50401C9.35482 6.36451 9.41015 6.23033 9.50962 6.13108C9.60909 6.03183 9.74459 5.9758 9.8862 5.97534C10.0278 5.97488 10.1637 6.03008 10.2637 6.12876C10.3639 6.22733 10.4199 6.36116 10.4195 6.50065C10.419 6.64015 10.3621 6.77364 10.2614 6.87163C10.1606 6.96961 10.0244 7.024 9.88279 7.02261C9.74388 7.02087 9.61122 6.96567 9.51302 6.86873C9.41497 6.77178 9.35928 6.64085 9.35799 6.50402L9.35624 6.50401Z" fill="#C0C0C0"/>
</svg>
